<svg id="visual" viewBox="0 0 900 600" width="900" height="600" xmlns="http://www.w3.org/2000/svg" xmlns:xlink="http://www.w3.org/1999/xlink" version="1.1"><rect x="0" y="0" width="900" height="600" fill="#140021"></rect><path d="M0 205L64 205L64 178L129 178L129 132L193 132L193 246L257 246L257 291L321 291L321 106L386 106L386 26L450 26L450 268L514 268L514 143L579 143L579 227L643 227L643 28L707 28L707 233L771 233L771 272L836 272L836 97L900 97L900 145L900 601L900 601L836 601L836 601L771 601L771 601L707 601L707 601L643 601L643 601L579 601L579 601L514 601L514 601L450 601L450 601L386 601L386 601L321 601L321 601L257 601L257 601L193 601L193 601L129 601L129 601L64 601L64 601L0 601Z" fill="#560090"></path><path d="M0 222L64 222L64 293L129 293L129 416L193 416L193 287L257 287L257 241L321 241L321 318L386 318L386 195L450 195L450 274L514 274L514 373L579 373L579 118L643 118L643 418L707 418L707 265L771 265L771 182L836 182L836 146L900 146L900 188L900 601L900 601L836 601L836 601L771 601L771 601L707 601L707 601L643 601L643 601L579 601L579 601L514 601L514 601L450 601L450 601L386 601L386 601L321 601L321 601L257 601L257 601L193 601L193 601L129 601L129 601L64 601L64 601L0 601Z" fill="#6600ab"></path><path d="M0 317L64 317L64 200L129 200L129 426L193 426L193 327L257 327L257 440L321 440L321 251L386 251L386 458L450 458L450 328L514 328L514 313L579 313L579 449L643 449L643 364L707 364L707 465L771 465L771 463L836 463L836 400L900 400L900 439L900 601L900 601L836 601L836 601L771 601L771 601L707 601L707 601L643 601L643 601L579 601L579 601L514 601L514 601L450 601L450 601L386 601L386 601L321 601L321 601L257 601L257 601L193 601L193 601L129 601L129 601L64 601L64 601L0 601Z" fill="#7700c6"></path><path d="M0 452L64 452L64 368L129 368L129 412L193 412L193 467L257 467L257 520L321 520L321 370L386 370L386 320L450 320L450 395L514 395L514 376L579 376L579 467L643 467L643 358L707 358L707 415L771 415L771 530L836 530L836 486L900 486L900 394L900 601L900 601L836 601L836 601L771 601L771 601L707 601L707 601L643 601L643 601L579 601L579 601L514 601L514 601L450 601L450 601L386 601L386 601L321 601L321 601L257 601L257 601L193 601L193 601L129 601L129 601L64 601L64 601L0 601Z" fill="#8800e2"></path><path d="M0 520L64 520L64 593L129 593L129 590L193 590L193 515L257 515L257 443L321 443L321 469L386 469L386 400L450 400L450 504L514 504L514 424L579 424L579 573L643 573L643 431L707 431L707 516L771 516L771 422L836 422L836 588L900 588L900 503L900 601L900 601L836 601L836 601L771 601L771 601L707 601L707 601L643 601L643 601L579 601L579 601L514 601L514 601L450 601L450 601L386 601L386 601L321 601L321 601L257 601L257 601L193 601L193 601L129 601L129 601L64 601L64 601L0 601Z" fill="#9900ff"></path></svg>